<svg xmlns="http://www.w3.org/2000/svg" viewBox="0 0 512 512" style="height: 512px; width: 512px;"><defs><filter id="shadow-1" height="300%" width="300%" x="-100%" y="-100%"><feFlood flood-color="#fff" result="flood"></feFlood><feComposite in="flood" in2="SourceGraphic" operator="atop" result="composite"></feComposite><!-- react-text: 28 -->0<!-- /react-text --><feOffset dx="0" dy="0" result="offset"></feOffset><feComposite in="SourceGraphic" in2="offset" operator="over"></feComposite></filter><filter id="shadow-2" height="300%" width="300%" x="-100%" y="-100%"><feFlood flood-color="#fff" result="flood"></feFlood><feComposite in="flood" in2="SourceGraphic" operator="atop" result="composite"></feComposite><!-- react-text: 32 -->0<!-- /react-text --><feOffset dx="0" dy="0" result="offset"></feOffset><feComposite in="SourceGraphic" in2="offset" operator="over"></feComposite></filter><filter id="shadow-3" height="300%" width="300%" x="-100%" y="-100%"><feFlood flood-color="#fff" result="flood"></feFlood><feComposite in="flood" in2="SourceGraphic" operator="atop" result="composite"></feComposite><!-- react-text: 38 -->0<!-- /react-text --><feOffset dx="0" dy="0" result="offset"></feOffset><feComposite in="SourceGraphic" in2="offset" operator="over"></feComposite></filter><filter id="shadow-4" height="300%" width="300%" x="-100%" y="-100%"><feFlood flood-color="#fff" result="flood"></feFlood><feComposite in="flood" in2="SourceGraphic" operator="atop" result="composite"></feComposite><!-- react-text: 44 -->0<!-- /react-text --><feOffset dx="0" dy="0" result="offset"></feOffset><feComposite in="SourceGraphic" in2="offset" operator="over"></feComposite></filter><filter id="shadow-5" height="300%" width="300%" x="-100%" y="-100%"><feFlood flood-color="#fff" result="flood"></feFlood><feComposite in="flood" in2="SourceGraphic" operator="atop" result="composite"></feComposite><!-- react-text: 50 -->0<!-- /react-text --><feOffset dx="0" dy="0" result="offset"></feOffset><feComposite in="SourceGraphic" in2="offset" operator="over"></feComposite></filter><filter id="shadow-6" height="300%" width="300%" x="-100%" y="-100%"><feFlood flood-color="#fff" result="flood"></feFlood><feComposite in="flood" in2="SourceGraphic" operator="atop" result="composite"></feComposite><!-- react-text: 56 -->0<!-- /react-text --><feOffset dx="0" dy="0" result="offset"></feOffset><feComposite in="SourceGraphic" in2="offset" operator="over"></feComposite></filter></defs><circle cx="256" cy="256" r="256" fill="#373540"></circle><g class="" style="touch-action: none;" transform="translate(0,0)"><g transform="translate(76.8, 76.8) scale(0.7, 0.7) rotate(0, 256, 256)"><path class="selected" fill="#a6a198" d="M161.22 19.563L158.72 24.938L52.28 250.438L51.28 252.531C26.787 280.739 16.363 311.118 17.687 340.721C19.067 371.573 32.807 401.109 54.063 427.531L56.875 431.031L106.595 431.031C111.412 427.195 115.525 423.214 119 419.001C120.758 416.869 122.38 414.643 123.875 412.345L65.97 412.345C48.157 389.158 37.444 364.497 36.344 339.907C35.221 314.797 43.681 289.313 66.281 263.782L498.157 263.782L492.907 250.908L401.063 25.408L398.688 19.565L161.22 19.565Z" filter="url(#shadow-2)"></path><path class="" fill="#a6a198" d="M173.063 38.25L350.406 38.25L403.062 79.844L441.469 174.124L382.624 245.064L75.47 245.064L173.062 38.25Z" filter="url(#shadow-3)"></path><path class="" fill="#a6a198" d="M75.156 282.625C59.846 301.605 54.181 320.403 55.031 339.063C55.871 357.461 63.307 376.013 75.531 393.531L132.721 393.531C137.113 380.014 139.065 363.684 139.501 343.095L123.313 343.095L123.313 324.407L139.626 324.407L139.626 324.22L255.375 324.22L255.375 324.406L272.531 324.406L272.531 343.094L255.281 343.094C254.994 360.894 253.834 377.732 251.281 393.531L472.907 393.531C463.873 356.659 463.795 319.525 472.877 282.626L75.155 282.626Z" filter="url(#shadow-4)"></path><path class="" fill="#a6a198" d="M158.156 342.905C157.386 380.603 151.696 408.735 133.436 430.875C118.841 448.575 97.246 461.622 66.156 473.688C74.846 475.346 83.37 476.913 92.686 478.938C106.734 481.99 120.598 485.276 131.719 488.188C137.279 489.643 142.159 491.014 146.093 492.25C148.033 492.86 149.626 493.324 151.123 493.875C186.368 480.411 206.903 460.978 219.468 435.155C231.412 410.605 235.755 379.442 236.404 342.905L158.154 342.905Z" filter="url(#shadow-5)"></path><path class="" fill="#a6a198" d="M247.406 412.345C245.774 418.77 243.874 425.013 241.594 431.031L498.624 431.031L498.624 412.345L247.407 412.345Z" filter="url(#shadow-6)"></path></g></g><!-- react-empty: 6 --></svg>