<svg xmlns="http://www.w3.org/2000/svg" viewBox="0 0 512 512" style="height: 512px; width: 512px;"><defs><filter id="shadow-1" height="300%" width="300%" x="-100%" y="-100%"><feFlood flood-color="#fff" result="flood"></feFlood><feComposite in="flood" in2="SourceGraphic" operator="atop" result="composite"></feComposite><feGaussianBlur in="composite" stdDeviation="7" result="blur"></feGaussianBlur><feOffset dx="0" dy="0" result="offset"></feOffset><feComposite in="SourceGraphic" in2="offset" operator="over"></feComposite></filter><filter id="shadow-2" height="300%" width="300%" x="-100%" y="-100%"><feFlood flood-color="#fff" result="flood"></feFlood><feComposite in="flood" in2="SourceGraphic" operator="atop" result="composite"></feComposite><feGaussianBlur in="composite" stdDeviation="7" result="blur"></feGaussianBlur><feOffset dx="0" dy="0" result="offset"></feOffset><feComposite in="SourceGraphic" in2="offset" operator="over"></feComposite></filter><filter id="shadow-3" height="300%" width="300%" x="-100%" y="-100%"><feFlood flood-color="#fff" result="flood"></feFlood><feComposite in="flood" in2="SourceGraphic" operator="atop" result="composite"></feComposite><feGaussianBlur in="composite" stdDeviation="7" result="blur"></feGaussianBlur><feOffset dx="0" dy="0" result="offset"></feOffset><feComposite in="SourceGraphic" in2="offset" operator="over"></feComposite></filter><filter id="shadow-4" height="300%" width="300%" x="-100%" y="-100%"><feFlood flood-color="#fff" result="flood"></feFlood><feComposite in="flood" in2="SourceGraphic" operator="atop" result="composite"></feComposite><feGaussianBlur in="composite" stdDeviation="7" result="blur"></feGaussianBlur><feOffset dx="0" dy="0" result="offset"></feOffset><feComposite in="SourceGraphic" in2="offset" operator="over"></feComposite></filter><filter id="shadow-5" height="300%" width="300%" x="-100%" y="-100%"><feFlood flood-color="#fff" result="flood"></feFlood><feComposite in="flood" in2="SourceGraphic" operator="atop" result="composite"></feComposite><feGaussianBlur in="composite" stdDeviation="7" result="blur"></feGaussianBlur><feOffset dx="0" dy="0" result="offset"></feOffset><feComposite in="SourceGraphic" in2="offset" operator="over"></feComposite></filter><filter id="shadow-6" height="300%" width="300%" x="-100%" y="-100%"><feFlood flood-color="#fff" result="flood"></feFlood><feComposite in="flood" in2="SourceGraphic" operator="atop" result="composite"></feComposite><feGaussianBlur in="composite" stdDeviation="7" result="blur"></feGaussianBlur><feOffset dx="0" dy="0" result="offset"></feOffset><feComposite in="SourceGraphic" in2="offset" operator="over"></feComposite></filter><filter id="shadow-7" height="300%" width="300%" x="-100%" y="-100%"><feFlood flood-color="#fff" result="flood"></feFlood><feComposite in="flood" in2="SourceGraphic" operator="atop" result="composite"></feComposite><feGaussianBlur in="composite" stdDeviation="7" result="blur"></feGaussianBlur><feOffset dx="0" dy="0" result="offset"></feOffset><feComposite in="SourceGraphic" in2="offset" operator="over"></feComposite></filter><filter id="shadow-8" height="300%" width="300%" x="-100%" y="-100%"><feFlood flood-color="#fff" result="flood"></feFlood><feComposite in="flood" in2="SourceGraphic" operator="atop" result="composite"></feComposite><feGaussianBlur in="composite" stdDeviation="7" result="blur"></feGaussianBlur><feOffset dx="0" dy="0" result="offset"></feOffset><feComposite in="SourceGraphic" in2="offset" operator="over"></feComposite></filter></defs><circle cx="256" cy="256" r="246" fill="#373540" stroke="#636170" stroke-width="10"></circle><g class="" style="touch-action: none;" transform="translate(3,28)"><g transform="translate(51.2, 51.2) scale(0.8, 0.8) rotate(0, 256, 256)"><path class="selected" fill="#4d4a59" d="M57.594 43L57.594 285.563L137.594 316.093L137.594 292C115.09 288.783 92.529 283.367 75.064 265.156L88.564 252.219C100.714 264.886 117.596 269.482 136.844 272.593L110.656 55.03C93.3 51.725 75.492 48.1 57.594 43Z" filter="url(#shadow-2)"></path><path class="" fill="#4d4a59" d="M454.719 43.03C389.541 60.422 316.365 43.132 263.499 113.844L263.499 322.656C283.294 293.506 308.942 281.79 334.219 276.126C368.133 268.523 400.399 268.963 425.719 248.5L437.469 263.03C406.213 288.293 369.219 287.416 338.311 294.344C309.016 300.91 284.333 311.974 266.061 357.531L454.718 285.564L454.718 43.03Z" filter="url(#shadow-3)"></path><path class="" fill="#4d4a59" d="M128.81 49.28L156.217 277.437L156.277 278L156.277 494.906L176.217 455.626L196.685 493.781L196.685 296.814L168.563 57.5L128.813 49.28Z" filter="url(#shadow-4)"></path><path class="" fill="#4d4a59" d="M189.28 73.53L214.873 291.312C219.048 293.612 223.131 296.272 227.061 299.375C233.513 304.472 239.473 310.735 244.811 318.345L244.811 109.5C229.315 92.025 210.409 81.173 189.279 73.53Z" filter="url(#shadow-5)"></path><path class="" fill="#4d4a59" d="M20.5 74.376L20.5 314.189L26.625 316.439L137.595 357.219L137.595 337.313L39.188 301.157L39.188 74.376L20.5 74.376Z" filter="url(#shadow-6)"></path><path class="" fill="#4d4a59" d="M473.094 74.406L473.094 301.156L256.156 380.846L215.376 365.876L215.376 404.156C238.586 412.186 273.454 410.969 301.626 401.626L301.626 384.063L485.656 316.438L491.781 314.188L491.781 74.407L473.095 74.407Z" filter="url(#shadow-7)"></path><path class="" fill="#4d4a59" d="M215.374 313.938L215.374 345.751L242.938 356.281C235.898 335.434 226.373 322.621 215.5 314.031C215.46 314.001 215.416 313.971 215.375 313.939Z" filter="url(#shadow-8)"></path></g></g><!-- react-empty: 13 --></svg>