<?xml version="1.0" encoding="iso-8859-1"?>
<!-- Generator: Adobe Illustrator 19.0.0, SVG Export Plug-In . SVG Version: 6.00 Build 0)  -->
<svg version="1.1" id="Capa_1" xmlns="http://www.w3.org/2000/svg" xmlns:xlink="http://www.w3.org/1999/xlink" x="0px" y="0px"
	 viewBox="0 0 512 512" style="enable-background:new 0 0 512 512;" xml:space="preserve">
<g>
	<polygon style="fill:#7FC4EC;" points="270.059,22.78 256,0 241.941,22.78 107.255,241.033 98.016,256 413.984,256 
		404.745,241.033 	"/>
	<polygon style="fill:#7FC4EC;" points="107.255,270.967 241.941,489.22 256,512 270.059,489.22 404.745,270.967 413.984,256 
		98.016,256 	"/>
</g>
<g>
	<polygon style="fill:#00A8E6;" points="256,512 270.059,489.22 404.745,270.967 413.984,256 256,256 	"/>
	<polygon style="fill:#00A8E6;" points="270.059,22.78 256,0 256,256 413.984,256 404.745,241.033 	"/>
</g>
<path style="fill:#FFFFFF;" d="M404.745,241.033h-85.862L270.059,22.78L256,0l-14.059,22.78l-48.823,218.253h-85.862L98.016,256
	l9.24,14.967h85.862l48.823,218.253L256,512l14.059-22.78l48.823-218.253h85.862l9.24-14.967L404.745,241.033z M256,414.932
	l-32.2-143.965H288.2L256,414.932z M223.8,241.033L256,97.068l32.2,143.965H223.8z"/>
<polygon style="fill:#B8F8FF;" points="404.745,241.033 318.882,241.033 270.059,22.78 256,0 256,97.068 288.2,241.033 256,241.033 
	256,270.967 288.2,270.967 256,414.932 256,512 270.059,489.22 318.882,270.967 404.745,270.967 413.984,256 "/>
<g>
</g>
<g>
</g>
<g>
</g>
<g>
</g>
<g>
</g>
<g>
</g>
<g>
</g>
<g>
</g>
<g>
</g>
<g>
</g>
<g>
</g>
<g>
</g>
<g>
</g>
<g>
</g>
<g>
</g>
</svg>
